<svg width="125" height="40" viewBox="0 0 125 40" fill="none" xmlns="http://www.w3.org/2000/svg">
<g clip-path="url(#clip0_1194_929)">
<path d="M41.0989 5.83341C41.192 9.83021 41.2823 13.6994 41.3731 17.5965H39.6216V0.0342915C40.1624 -0.0521194 40.588 0.00225984 41.0169 0.461063C44.4614 4.14923 47.94 7.80594 51.4053 11.475C51.5097 11.5855 51.5837 11.7242 51.6722 11.8495C51.716 11.8227 51.7601 11.7957 51.8042 11.7686C51.7222 7.90352 51.6402 4.03872 51.5576 0.14217H53.307V17.7062C52.7962 17.7849 52.382 17.7767 51.9682 17.3344C48.5113 13.638 45.0248 9.96921 41.5468 6.29253C41.4304 6.16966 41.3108 6.05034 41.0989 5.83341Z" fill="#F9F9F9"/>
<path d="M95.5413 10.3478C97.418 12.7748 99.2621 15.1597 101.167 17.6239H100.419C99.3494 17.6239 98.2798 17.6139 97.2108 17.6307C96.9369 17.6351 96.774 17.5481 96.613 17.3291C95.3799 15.654 94.1334 13.9887 92.8898 12.3212C92.8008 12.2016 92.7032 12.0885 92.5468 11.8942V17.596H89.1105C89.1029 17.4476 89.0885 17.2977 89.0882 17.1478C89.0873 11.6329 89.0911 6.11796 89.0794 0.602768C89.0788 0.218028 89.1711 0.0884115 89.5744 0.101053C90.5408 0.131617 91.5087 0.111053 92.5183 0.111053V10.8255C92.6923 10.677 92.7958 10.5971 92.8901 10.5074C94.48 8.99401 96.0754 7.48588 97.6514 5.95807C97.9106 5.70676 98.1663 5.60801 98.5179 5.62065C99.1539 5.64358 99.7914 5.62712 100.557 5.62712C98.8356 7.24751 97.2037 8.78327 95.5413 10.3478Z" fill="#F9F9F9"/>
<path d="M59.0413 11.3687C59.141 12.3249 59.1918 13.035 59.2973 13.7369C59.3538 14.1122 59.4766 14.4846 59.6177 14.8388C59.8961 15.5375 60.3328 16.1018 61.0882 16.3405C62.3726 16.7464 63.5366 16.0962 64.0383 14.658C64.4865 13.3727 64.5262 12.0371 64.4342 10.6939C64.3719 9.78125 64.2411 8.88243 63.7991 8.0615C63.4517 7.41633 62.9555 6.95606 62.2025 6.83965C60.941 6.6448 59.9425 7.25644 59.5442 8.63141C59.2662 9.59139 59.1756 10.6054 59.0413 11.3687ZM62.0117 17.9232C59.9366 17.8921 58.2477 17.4536 56.9165 16.0859C55.9619 15.1057 55.5086 13.8944 55.3687 12.5568C55.2159 11.0992 55.3584 9.67956 56.0486 8.361C56.7364 7.04775 57.8198 6.17981 59.2212 5.72775C61.0744 5.13019 62.9323 5.14547 64.7449 5.87412C66.7113 6.66477 67.8076 8.1829 68.15 10.2424C68.3846 11.6541 68.3184 13.0606 67.7582 14.3988C66.9311 16.3757 65.361 17.4106 63.3091 17.7854C62.8062 17.8771 62.29 17.895 62.0117 17.9232Z" fill="#F9F9F9"/>
<path d="M86.628 8.17931C85.9928 7.84748 85.4056 7.49976 84.7851 7.22759C84.072 6.91513 83.3143 6.77877 82.531 6.93132C81.9855 7.03741 81.5214 7.25933 81.3667 7.85335C81.2354 8.35831 81.452 8.88414 82.0293 9.20892C82.7211 9.59809 83.4689 9.8873 84.1737 10.2553C84.8524 10.6095 85.5731 10.9284 86.1609 11.404C87.985 12.8794 87.7287 15.6068 85.7251 16.9303C84.2405 17.9111 82.6112 18.0328 80.9238 17.8441C80.1911 17.7621 79.4674 17.5934 78.7452 17.4382C78.6339 17.4144 78.4728 17.2536 78.4698 17.1522C78.4469 16.3724 78.4572 15.5918 78.4572 14.7373C78.615 14.8314 78.7197 14.8878 78.8179 14.9531C79.8489 15.6391 80.9417 16.189 82.1947 16.2896C82.6374 16.3251 83.1041 16.2564 83.5383 16.1485C83.9551 16.0447 84.2569 15.7475 84.336 15.2899C84.4203 14.8011 84.2507 14.3873 83.8307 14.1566C83.1221 13.7677 82.3873 13.4235 81.6507 13.0887C80.7281 12.6693 79.8057 12.2625 79.1235 11.4666C77.5214 9.59631 78.1603 6.79199 80.4315 5.85436C82.0251 5.19628 83.6814 5.20479 85.3479 5.52312C85.7771 5.60484 86.1992 5.72592 86.628 5.82998V8.17931Z" fill="#F9F9F9"/>
<path d="M70.0842 5.65216H73.3811V8.28072C74.1171 6.42047 75.3587 5.30975 77.4758 5.32473V8.78304C77.1428 8.71984 76.8153 8.64313 76.4838 8.59699C74.9489 8.38419 73.7112 9.31945 73.5296 10.8579C73.4631 11.421 73.4702 11.9944 73.4676 12.5632C73.4602 14.2289 73.4652 15.8945 73.4652 17.5919H70.0842V5.65216Z" fill="#F9F9F9"/>
<path d="M80.7589 33.7242C80.7286 32.6305 80.5952 31.56 79.9694 30.6236C79.4409 29.8324 78.7332 29.3368 77.7306 29.38C76.7454 29.4226 76.1414 29.9873 75.7378 30.8255C75.2937 31.7473 75.2037 32.7401 75.2052 33.7395C75.2067 34.7997 75.3219 35.8481 75.8748 36.7887C76.6892 38.1751 78.4766 38.3682 79.5806 37.1987C80.5044 36.2199 80.6993 34.9951 80.7589 33.7242ZM80.6881 22.1765H84.129V39.6335H80.7842V37.9082C80.3324 38.3359 79.9588 38.7906 79.4939 39.1124C77.1234 40.7546 73.7335 40.0303 72.3489 37.467C70.9621 34.8996 70.9718 32.214 72.4611 29.6792C74.2259 26.6753 78.6767 26.6553 80.5073 29.1987C80.5396 29.2433 80.5476 29.305 80.567 29.3588C80.6072 29.3359 80.6478 29.313 80.6881 29.2904V22.1765Z" fill="#F9F9F9"/>
<path d="M43.3059 39.652H39.6215V22.1855H50.4638V23.6214H43.315V29.9278H49.4783V31.3883H43.3059V39.652Z" fill="#F9F9F9"/>
<path d="M102.363 31.8553C102.304 31.3319 102.281 30.8493 102.192 30.3787C101.932 28.9896 100.885 28.619 99.6442 28.9714C98.6064 29.2659 97.9022 30.6235 98.0923 31.8553H102.363ZM105.908 33.3367H98.092C98.269 34.8587 98.7683 36.1569 100.043 37.0414C101.452 38.0189 102.933 37.9555 105.106 36.8465C105.364 37.136 105.627 37.4314 105.902 37.7397C104.872 38.9613 103.573 39.657 102.018 39.8754C100.36 40.1084 98.7742 39.8904 97.3322 38.9939C95.6084 37.9219 94.7704 36.3004 94.5388 34.3317C94.3466 32.696 94.5652 31.1344 95.5757 29.7826C97.0163 27.8556 99.0276 27.2208 101.341 27.4077C103.111 27.5508 104.537 28.3048 105.379 29.9425C105.917 30.9912 105.976 32.1249 105.908 33.3367Z" fill="#F9F9F9"/>
<path d="M117.529 29.2918H115.55C115.55 28.9682 115.522 28.6831 115.564 28.4086C115.58 28.2975 115.731 28.1637 115.851 28.1173C117.646 27.4236 118.986 26.2432 119.815 24.4938C119.867 24.3827 120.027 24.2951 120.155 24.2546C120.285 24.2137 120.437 24.2431 120.58 24.2457C120.693 24.2475 120.806 24.2551 120.968 24.2625V27.6632H124.451V29.278H120.975C120.975 29.4702 120.975 29.6078 120.975 29.7456C120.975 31.7264 120.994 33.7071 120.97 35.6876C120.945 37.7192 122.263 38.0272 123.723 37.5276C123.882 37.4735 124.031 37.3924 124.213 37.3109C124.432 37.5966 124.645 37.875 124.853 38.1469C123.488 39.7899 121.034 40.4254 119.309 39.5862C118.119 39.0072 117.59 37.9661 117.559 36.7146C117.503 34.4358 117.534 32.1552 117.529 29.8752C117.529 29.7065 117.529 29.5381 117.529 29.2918Z" fill="#F9F9F9"/>
<path d="M111.833 24.2453V27.6593H115.313V29.2841H111.832V35.6316C111.832 35.6887 111.832 35.7457 111.834 35.8024C111.886 37.4252 112.816 38.0883 114.375 37.6062C114.603 37.5357 114.819 37.4252 115.082 37.3164C115.293 37.5889 115.508 37.8669 115.718 38.1403C114.429 39.7763 111.892 40.4358 110.156 39.5779C108.919 38.9665 108.434 37.8631 108.409 36.5684C108.365 34.3184 108.394 32.0669 108.393 29.8161V29.3017H106.419C106.419 28.9663 106.396 28.6821 106.43 28.4047C106.443 28.3021 106.57 28.168 106.676 28.1289C108.496 27.4488 109.838 26.2531 110.684 24.4972C110.74 24.3799 110.924 24.2797 111.063 24.2562C111.295 24.2165 111.539 24.2453 111.833 24.2453Z" fill="#F9F9F9"/>
<path d="M94.0903 27.3738V30.833C93.7679 30.7713 93.4557 30.6999 93.14 30.6528C91.4802 30.4059 90.1538 31.4538 90.1 33.1397C90.0438 34.9041 90.0788 36.6715 90.0744 38.4374C90.0735 38.8327 90.0744 39.2281 90.0744 39.6457H86.6905V27.7068H89.9915V30.3295C90.7219 28.4481 91.9737 27.3459 94.0903 27.3738Z" fill="#F9F9F9"/>
<path d="M58.6867 27.3726V30.8348C58.3413 30.768 58.0253 30.6937 57.7053 30.6472C56.1466 30.4221 54.8877 31.3532 54.7263 32.9181C54.6376 33.7787 54.6667 34.6525 54.6611 35.5205C54.652 36.8855 54.6588 38.2508 54.6588 39.6422H51.2836V27.7089H54.5526V30.3195C54.5835 30.3427 54.6147 30.3662 54.6458 30.3895C55.3101 28.4707 56.5519 27.3468 58.6867 27.3726Z" fill="#F9F9F9"/>
<path d="M63.5919 27.6959H60.1874V39.6575H63.5919V27.6959Z" fill="#F9F9F9"/>
<path d="M69.5493 27.6964H66.156V39.6553H69.5493V27.6964Z" fill="#F9F9F9"/>
<path d="M59.6973 24.0244C59.6937 22.824 60.696 21.8108 61.8867 21.8114C63.0771 21.8117 64.08 22.8263 64.0756 24.0261C64.0718 25.2071 63.0924 26.1953 61.9061 26.2156C60.7228 26.2361 59.7011 25.2224 59.6973 24.0244Z" fill="#F9F9F9"/>
<path d="M70.0549 24.0003C70.0649 25.1886 69.0344 26.2229 67.8481 26.2156C66.665 26.2082 65.6733 25.2156 65.6633 24.0291C65.6533 22.8316 66.6703 21.8061 67.8616 21.8123C69.0364 21.8184 70.0452 22.8245 70.0549 24.0003Z" fill="#F9F9F9"/>
<path d="M0.788261 17.9417V17.9424C0.7886 17.9414 0.7886 17.9407 0.788939 17.9401L0.788261 17.9417Z" fill="#F9F9F9"/>
<path d="M9.95754 10.0427C9.89409 9.948 9.83363 9.85466 9.77749 9.76331C9.83397 9.85466 9.89409 9.948 9.95754 10.0427Z" fill="#F9F9F9"/>
<path d="M15.8983 3.18344C13.2236 3.44387 10.6001 3.91755 9.52122 5.60599C9.04589 6.35039 8.60975 7.46748 9.4558 9.18351C9.36975 9.00877 9.29634 8.84037 9.23555 8.67793C13.8601 7.57545 20.4242 7.51599 26.6551 7.59538C27.2218 7.60267 27.7177 7.60899 28.1396 7.61132V2.84595L21.346 2.95324C19.5482 2.9808 17.6894 3.00904 15.8983 3.18344Z" fill="#F9F9F9"/>
<path d="M4.04986 25.9413C8.65181 30.6283 14.0589 33.671 19.8484 37.0442L22.2919 32.4008C15.2491 28.3164 5.76686 22.8186 3.84756 18.1319C2.85169 15.5403 3.30578 12.9576 3.87679 11.2207L1.20479 17.0354C1.00614 20.8607 2.06479 23.8197 4.04986 25.9413Z" fill="#F9F9F9"/>
<path d="M13.4411 23.5923C18.341 27.0721 23.6013 29.9122 23.6017 29.9122L26.8294 23.7786L26.0757 25.211C22.0132 22.9658 18.5549 20.819 15.4016 18.5894L15.0462 18.339C13.2305 17.0601 10.4864 15.1275 8.54088 12.8202C6.10174 9.92797 5.87485 7.52237 6.403 5.72363L4.77535 9.26494C3.91038 16.2977 8.35587 20.2011 13.4411 23.5923Z" fill="#F9F9F9"/>
<path d="M14.278 10.7343C12.9377 10.8666 11.8136 11.03 10.8672 11.2103C10.8081 11.1429 10.7473 11.0758 10.6902 11.0077C12.1242 12.7085 14.1558 14.2511 15.7761 15.4104L28.1396 15.1971V10.4228C27.7038 10.4201 27.1972 10.4138 26.6193 10.4065C23.4387 10.366 18.6321 10.3045 14.278 10.7343Z" fill="#F9F9F9"/>
<path d="M4.04986 25.9413C2.06479 23.8197 1.00614 20.8607 1.20479 17.0354L0.788894 17.9399C0.788894 17.9409 0.788578 17.9416 0.788239 17.9422C0.084018 20.1127 -0.971964 24.8445 1.87578 27.9281C6.77535 32.9475 12.3479 36.0829 18.4765 39.6512L19.0405 38.5792L19.1784 38.3175L19.8484 37.0442C14.0589 33.671 8.65181 30.6283 4.04986 25.9413Z" fill="#FF3943"/>
<path d="M9.47682 9.22532C9.46984 9.21137 9.46253 9.19742 9.45589 9.18347C9.46253 9.19708 9.46984 9.21137 9.47682 9.22532Z" fill="#F9F9F9"/>
<path d="M21.303 0.142126C19.4488 0.170703 17.5312 0.199936 15.6258 0.385286C13.3504 0.606843 9.11555 1.01939 7.15239 4.09267L6.40269 5.72366C5.87485 7.52271 6.10174 9.92799 8.54088 12.8202C10.4864 15.1275 13.2305 17.0601 15.0462 18.339L15.4016 18.5894C18.5549 20.819 22.0129 22.9658 26.0757 25.211L26.8294 23.7786L27.3851 22.7227C24.5786 21.1704 22.072 19.668 19.7594 18.1536L28.1395 18.0091V15.1973L15.776 15.4105C14.1556 14.2512 12.124 12.7086 10.69 11.0079C10.6047 10.9066 10.524 10.8072 10.4459 10.7089C10.4223 10.679 10.4001 10.6498 10.3771 10.6202C10.3223 10.5498 10.2695 10.48 10.2184 10.4113C10.1964 10.3814 10.1745 10.3515 10.1529 10.3219C10.0984 10.2469 10.0466 10.1728 9.99648 10.0994C9.98386 10.0805 9.96989 10.0615 9.95761 10.0426C9.89384 9.9479 9.8337 9.8549 9.77725 9.76323C9.77424 9.75858 9.77192 9.75393 9.7686 9.74894C9.71612 9.66323 9.66729 9.57887 9.62045 9.49617C9.61081 9.47856 9.60151 9.46129 9.59187 9.444C9.55135 9.36994 9.51282 9.29718 9.47695 9.22544C9.46998 9.21149 9.46266 9.1972 9.45569 9.18359C8.60964 7.46757 9.04578 6.35048 9.52147 5.60605C10.6 3.91763 13.2235 3.44393 15.8982 3.18353C17.6893 3.00912 19.5481 2.98057 21.3459 2.95298L28.1395 2.84603V0.0341797L21.303 0.142126Z" fill="#FF3943"/>
</g>
<defs>
<clipPath id="clip0_1194_929">
<rect width="124.853" height="40" fill="white"/>
</clipPath>
</defs>
</svg>
