<?xml version="1.0" encoding="utf-8" ?><svg xmlns="http://www.w3.org/2000/svg" xmlns:xlink="http://www.w3.org/1999/xlink" width="563" height="563" viewBox="0 0 563 563"><defs><linearGradient id="gradient_0" gradientUnits="userSpaceOnUse" x1="667.60358" y1="998.06683" x2="356.07568" y2="24.555809"><stop offset="0" stop-color="#0071DD"/><stop offset="1" stop-color="#1DC1FF"/></linearGradient></defs><path fill="url(#gradient_0)" transform="scale(0.549805 0.549805)" d="M488.656 0L531.446 0L531.897 0.0803659C539.215 1.31165 552.395 1.72071 560.258 2.38517C576.37 3.67531 592.391 5.91509 608.239 9.09285C628.494 13.2962 648.353 18.1674 668.069 24.4803C848.691 82.3158 982.704 234.468 1016.38 420.981C1018.69 433.537 1020.37 446.2 1021.42 458.922C1021.85 464.022 1022.96 484.692 1024 488.253L1024 535.918C1022.1 545.642 1022.64 556.912 1021.5 566.824C1019.5 584.035 1017.29 601.308 1013.56 618.245C986.688 743.481 913.879 854.109 809.482 928.32C746.795 972.96 674.899 1002.98 599.082 1016.18C585.034 1018.58 570.901 1020.46 556.714 1021.82C552.576 1022.19 533.775 1023.32 531.393 1024L493.051 1024C490.65 1023.32 468.623 1022.17 464.297 1021.79C450.994 1020.48 437.75 1018.63 424.596 1016.24C347.484 1002.75 274.482 971.783 211.183 925.721C108.734 851.493 37.2978 742.054 10.5768 618.395C6.8038 600.831 4.01573 583.07 2.22571 565.195C1.4621 557.905 1.18171 547.062 0.0800785 540.334L0 539.871L0 487.233C0.756837 484.056 1.27485 470.74 1.68352 466.502C2.96658 453.194 4.32794 439.706 6.53376 426.509C18.4461 354.885 45.6466 286.667 86.2847 226.497C152.139 128.994 249.326 56.9144 361.747 22.1998C398.063 10.9436 435.878 3.91459 473.766 1.36653C478.597 1.04161 483.949 0.971572 488.656 0Z"/><path fill="#14212A" transform="scale(0.549805 0.549805)" d="M300.132 261.485C298.5 261.097 297.731 260.862 296.021 260.798L295.309 260.038C298.355 255.319 310.533 246.991 315.498 243.71C351.206 220.04 391.017 203.242 432.888 194.179C473.633 185.402 521.839 184.984 562.968 190.723C570.917 191.832 579.054 192.811 586.872 194.568C613.068 200.556 638.403 209.835 662.271 222.182C676.647 229.538 707.31 246.614 716.225 259.99L716.242 260.762C709.586 262.029 691.501 260.487 683.244 261.385L799.189 261.473L829.606 261.459C838.078 261.46 847.763 261.1 855.964 262.725C863.553 264.242 870.511 268.005 875.935 273.524C885.18 282.921 887.472 294.484 887.445 307.259C887.407 325.078 887.288 342.922 887.463 360.735C887.581 372.889 883.522 384.752 874.623 393.241C864.839 402.538 853.745 404.181 840.829 404.107L841.064 612.006C840.923 634.189 840.906 656.372 841.013 678.555C841.037 687.891 840.611 700.505 841.146 709.613L865.903 735.934C871.06 741.418 877.026 747.431 881.493 753.537C889.702 764.759 886.423 781.754 886.925 794.772C887.214 802.252 883.971 811.117 878.589 816.109C875.273 819.27 869.839 822.205 865.209 822.755C853.568 824.138 839.628 823.486 827.799 823.549C808.512 823.474 789.204 823.897 769.919 823.608C761.772 823.487 756.611 821.632 751.299 815.251C734.233 794.753 717.598 773.889 700.648 753.296C698.501 750.688 696.101 746.853 694.82 743.74C694.091 741.709 693.39 738.446 693.249 736.255C692.677 727.405 692.786 718.401 692.956 709.519C693.098 702.15 696.808 694.376 702.429 689.598C709.345 683.723 716.783 682.458 725.565 683.042C734.026 683.604 739.748 688.017 745.501 693.745C745.317 660.49 745.597 626.345 745.065 593.268C744.908 593.338 744.75 593.409 744.593 593.48C731.336 601.463 720.667 613.418 708.203 622.707C691.155 635.412 674.379 648.182 655.8 658.781C584.111 699.666 502.114 724.133 421.248 739.064C402.281 742.566 382.178 745.803 362.949 747.13C358.67 747.425 330.791 749.736 328.177 748.582C326.193 750.606 318.414 761.027 315.705 764.253C302.151 780.699 288.738 797.287 275.317 813.843C264.976 826.6 251.428 823.709 236.5 823.636L203.793 823.601L176.828 823.616C165.976 823.614 155.204 824.943 146.59 816.969C141.314 812.045 138.238 805.206 138.055 797.99C137.754 788.148 136.614 768.038 140.334 759.015C142.907 752.77 152.993 742.751 157.926 737.425C166.377 728.278 174.886 719.186 183.454 710.148C183.605 694.143 183.176 677.689 183.226 661.606C183.258 651.403 183.572 637.259 183.001 627.275C181.748 624.474 182.125 597.753 181.894 592.917C182.317 591.07 180.231 588.202 180.455 586.699C182.955 569.886 181.778 550.294 182.357 533.689C181.183 529.57 177.104 527.478 175.493 524.154C172.362 517.695 168.235 509.685 165.995 502.927C160.947 487.692 155.792 472.207 152.62 456.462C151.494 450.873 150.136 444.912 150.948 439.235C151.094 438.318 154.343 436.023 155.526 437.414C156.962 439.101 159.779 435.435 161.2 435.176C166.679 434.114 176.498 440.937 180.879 435.657C183.327 432.707 181.504 421.569 181.681 417.543C181.828 414.19 182.195 410.756 181.867 407.461C181.689 405.674 180.766 405.397 179.471 404.446C167.315 403.392 158.245 401.248 149.184 392.453C140.296 383.795 136.949 372.358 137.02 360.217C137.114 344.069 137.076 327.991 137.016 311.849C136.991 304.911 136.964 298.256 138.695 291.492C140.426 284.48 144.011 278.062 149.074 272.91C164.319 257.596 184.548 262.272 204.191 261.484C207.539 261.35 211.047 261.482 214.411 261.481L300.132 261.485Z"/><defs><linearGradient id="gradient_1" gradientUnits="userSpaceOnUse" x1="528.45276" y1="719.51208" x2="494.42804" y2="522.61804"><stop offset="0" stop-color="#13A8FA"/><stop offset="1" stop-color="#4EC7FA"/></linearGradient></defs><path fill="url(#gradient_1)" transform="scale(0.549805 0.549805)" d="M279.778 558.863L745.041 558.992L745.065 593.268C744.908 593.338 744.75 593.409 744.593 593.48C731.336 601.463 720.667 613.418 708.203 622.707C691.155 635.412 674.379 648.182 655.8 658.781C584.111 699.666 502.114 724.133 421.248 739.064C402.281 742.566 382.178 745.803 362.949 747.13C358.67 747.425 330.791 749.736 328.177 748.582C334.617 736.296 331.909 723.005 332.035 709.74C332.191 693.288 316.67 681.254 300.883 682.955C290.119 684.115 286.439 686.967 279.584 694.512L279.778 558.863Z"/><path fill="#37B9F7" transform="scale(0.549805 0.549805)" d="M300.132 261.485C298.5 261.097 297.731 260.862 296.021 260.798L295.309 260.038C298.355 255.319 310.533 246.991 315.498 243.71C351.206 220.04 391.017 203.242 432.888 194.179C473.633 185.402 521.839 184.984 562.968 190.723C570.917 191.832 579.054 192.811 586.872 194.568C613.068 200.556 638.403 209.835 662.271 222.182C676.647 229.538 707.31 246.614 716.225 259.99L716.242 260.762C709.586 262.029 691.501 260.487 683.244 261.385C643.923 262.011 603.092 261.462 563.666 261.473L300.132 261.485Z"/><path fill="#37B9F7" transform="scale(0.549805 0.549805)" d="M179.471 404.446L182.294 404.579C183.484 406.182 183.011 419.438 183.009 422.49L183.083 494.184L183.153 516.275C183.162 518.83 183.322 525.101 183.055 527.352C183.638 536.171 183.44 547.307 183.159 556.282C182.43 579.605 184.146 604.086 183.001 627.275C181.748 624.474 182.125 597.753 181.894 592.917C182.317 591.07 180.231 588.202 180.455 586.699C182.955 569.886 181.778 550.294 182.357 533.689C181.183 529.57 177.104 527.478 175.493 524.154C172.362 517.695 168.235 509.685 165.995 502.927C160.947 487.692 155.792 472.207 152.62 456.462C151.494 450.873 150.136 444.912 150.948 439.235C151.094 438.318 154.343 436.023 155.526 437.414C156.962 439.101 159.779 435.435 161.2 435.176C166.679 434.114 176.498 440.937 180.879 435.657C183.327 432.707 181.504 421.569 181.681 417.543C181.828 414.19 182.195 410.756 181.867 407.461C181.689 405.674 180.766 405.397 179.471 404.446Z"/><path fill="#37B9F7" transform="scale(0.549805 0.549805)" d="M279.696 404.476L745.038 404.513L745.216 474.004L279.681 474.159C279.18 452.548 279.169 426.075 279.696 404.476Z"/><path fill="#37B9F7" transform="scale(0.549805 0.549805)" d="M279.857 495.525C318.305 495.953 356.756 496.019 395.205 495.723L522.331 495.662L745.171 495.595C745.291 502.742 745.272 509.891 745.111 517.037L745.464 537.187L413.012 537.268L324.888 537.319C311.16 537.326 293.235 537.906 279.921 537.185L279.89 517.012C279.766 509.841 279.571 502.693 279.857 495.525Z"/><path fill="#0682DC" transform="scale(0.549805 0.549805)" d="M279.89 517.012L629.287 517.156L708.98 517.044C720.242 517.026 734.106 516.598 745.111 517.037L745.464 537.187L413.012 537.268L324.888 537.319C311.16 537.326 293.235 537.906 279.921 537.185L279.89 517.012Z"/><path fill="#FAB047" transform="scale(0.549805 0.549805)" d="M233.094 404.308C241.27 404.057 249.927 404.289 258.117 404.429L258.234 622.608L258.176 681.745C258.146 692.718 257.772 706.014 258.355 716.752C246.859 724.923 247.154 725.385 233.179 724.994L204.308 725.026C203.839 715.088 204.219 701.977 204.234 691.784L204.279 629.403L204.012 404.459C213.705 404.342 223.4 404.292 233.094 404.308Z"/><path fill="#F67E33" transform="scale(0.549805 0.549805)" d="M233.094 404.308C241.27 404.057 249.927 404.289 258.117 404.429L258.234 622.608L258.176 681.745C258.146 692.718 257.772 706.014 258.355 716.752C246.859 724.923 247.154 725.385 233.179 724.994C233.796 713.523 233.241 696.067 233.311 684.001L233.406 587.51L233.393 458.469C233.393 452.806 233.959 406.313 233.094 404.308Z"/><path fill="#FAB047" transform="scale(0.549805 0.549805)" d="M766.212 404.507C775.812 404.318 785.414 404.284 795.015 404.405L819.94 404.529L819.986 724.877C813.101 724.838 801.591 725.164 795.139 724.678C780.265 724.821 777.976 726.046 766.328 716.203C766.703 699.41 766.462 682.067 766.46 665.233L766.436 576.628C766.398 519.546 767.011 461.469 766.212 404.507Z"/><path fill="#F67E33" transform="scale(0.549805 0.549805)" d="M795.015 404.405L819.94 404.529L819.986 724.877C813.101 724.838 801.591 725.164 795.139 724.678C794.444 687.98 795.005 649.461 795.009 612.647L795.015 404.405Z"/><path fill="#F0F7F9" transform="scale(0.549805 0.549805)" d="M433.026 282.446C486.395 283.123 540.987 282.61 594.459 282.526C594.534 288.584 594.508 294.643 594.382 300.7L594.431 307.169C594.459 322.017 594.685 337.397 594.401 352.202C594.445 357.403 594.845 378.534 594.199 382.654C593.79 382.974 593.399 383.344 592.952 383.543C583.515 382.632 562.916 383.262 552.522 383.282L476.546 383.291C463.672 383.286 445.698 383.771 433.219 382.956L433.329 361.655C432.689 343.948 433.116 323.39 433.031 305.489L433.164 302.201C432.904 295.737 433.016 288.946 433.026 282.446Z"/><path fill="#E6EBEF" transform="scale(0.549805 0.549805)" d="M433.026 282.446C486.395 283.123 540.987 282.61 594.459 282.526C594.534 288.584 594.508 294.643 594.382 300.7C593.713 303.298 593.777 304.231 593.772 306.946L483.298 306.93L450.198 306.975C446.888 306.979 436.567 307.184 433.903 306.817C433.696 305.282 433.535 303.693 433.164 302.201C432.904 295.737 433.016 288.946 433.026 282.446Z"/><path fill="#E6EBEF" transform="scale(0.549805 0.549805)" d="M593.798 361.385C593.808 358.22 593.621 355.247 594.401 352.202C594.445 357.403 594.845 378.534 594.199 382.654C593.79 382.974 593.399 383.344 592.952 383.543C583.515 382.632 562.916 383.262 552.522 383.282L476.546 383.291C463.672 383.286 445.698 383.771 433.219 382.956L433.329 361.655L593.798 361.385Z"/><path fill="#2A343F" transform="scale(0.549805 0.549805)" d="M284.964 282.544L388.974 282.619C401.893 282.624 420.953 281.874 433.026 282.446C433.016 288.946 432.904 295.737 433.164 302.201L433.031 305.489C433.116 323.39 432.689 343.948 433.329 361.655L433.219 382.956C422.356 383.952 401.231 383.364 389.722 383.369L318.298 383.362C307.645 383.368 296.028 383.105 285.467 383.367C285.771 376.811 285.522 368.067 285.539 361.334L285.478 308.116C285.517 304.452 286.024 285.741 285.001 283.078L284.964 282.544Z"/><path fill="#3D4A57" transform="scale(0.549805 0.549805)" d="M284.964 282.544L388.974 282.619C401.893 282.624 420.953 281.874 433.026 282.446C433.016 288.946 432.904 295.737 433.164 302.201L433.031 305.489C431.872 306.47 431.29 306.817 429.701 306.861C416.209 307.232 402.409 307.117 388.922 307.136L308.501 307.446C304.435 307.489 287.918 306.955 285.478 308.116C285.517 304.452 286.024 285.741 285.001 283.078L284.964 282.544Z"/><path fill="#2A343F" transform="scale(0.549805 0.549805)" d="M594.459 282.526L700.256 282.537C712.835 282.547 728.252 282.078 740.534 282.483L740.675 303.135L740.66 306.956C740.614 320.061 740.032 337.847 740.636 350.7C740.597 355.22 740.959 376.052 740.473 378.819L740.204 379.713C739.907 380.715 739.85 380.968 739.772 382.039C738.435 383.416 732.838 383.237 730.602 383.254C699.269 383.5 667.906 383.277 636.569 383.337C622.213 383.364 607.641 383.096 593.323 383.578C593.199 383.566 593.076 383.555 592.952 383.543C593.399 383.344 593.79 382.974 594.199 382.654C594.845 378.534 594.445 357.403 594.401 352.202C594.685 337.397 594.459 322.017 594.431 307.169L594.382 300.7C594.508 294.643 594.534 288.584 594.459 282.526Z"/><path fill="#3D4A57" transform="scale(0.549805 0.549805)" d="M594.459 282.526L700.256 282.537C712.835 282.547 728.252 282.078 740.534 282.483L740.675 303.135L740.66 306.956C723.147 307.374 705.107 307.418 687.583 307.133C656.66 306.631 625.291 307.964 594.431 307.169L594.382 300.7C594.508 294.643 594.534 288.584 594.459 282.526Z"/><path fill="#F0F7F9" transform="scale(0.549805 0.549805)" d="M158.496 305.757C158.438 303.11 158.359 300.43 159.112 297.89C164.212 280.697 179.317 282.555 193.561 282.627C199.55 282.657 205.409 282.624 211.248 282.626L284.964 282.544L285.001 283.078C286.024 285.741 285.517 304.452 285.478 308.116L285.539 361.334C285.522 368.067 285.771 376.811 285.467 383.367C263.557 384.083 239.505 383.068 217.392 383.46C209.218 383.604 181.393 383.816 175.265 382.762C171.124 382.042 167.301 380.08 164.301 377.137C156.722 369.774 158.623 357.703 158.503 347.98C158.4 339.77 158.574 331.428 158.611 323.204C158.334 318.168 158.518 310.954 158.496 305.757Z"/><path fill="#E6EBEF" transform="scale(0.549805 0.549805)" d="M158.496 305.757C158.438 303.11 158.359 300.43 159.112 297.89C164.212 280.697 179.317 282.555 193.561 282.627C199.55 282.657 205.409 282.624 211.248 282.626L284.964 282.544L285.001 283.078C284.941 290.969 284.979 299.065 284.817 306.936L188.725 306.979C184.701 306.979 161.325 307.414 159.168 306.717L158.496 305.757Z"/><path fill="#E6EBEF" transform="scale(0.549805 0.549805)" d="M158.611 323.204C159.792 328.024 159.067 355.411 159.143 361.983C164.207 361.097 183.073 361.46 189.429 361.47L253.941 361.576C261.681 361.576 278.541 362.049 285.539 361.334C285.522 368.067 285.771 376.811 285.467 383.367C263.557 384.083 239.505 383.068 217.392 383.46C209.218 383.604 181.393 383.816 175.265 382.762C171.124 382.042 167.301 380.08 164.301 377.137C156.722 369.774 158.623 357.703 158.503 347.98C158.4 339.77 158.574 331.428 158.611 323.204Z"/><path fill="#F0F7F9" transform="scale(0.549805 0.549805)" d="M740.534 282.483L814.597 282.667C823.655 282.676 832.704 282.665 841.786 282.662C849.154 282.659 855.117 283.566 860.499 289.245C863.494 292.413 865.339 295.999 865.531 300.473C866.224 304.683 866.12 310.978 866.016 315.362C865.627 331.824 866.181 348.366 865.687 364.8C865.594 367.919 863.854 372.466 861.989 374.946C858.536 379.536 853.341 382.497 847.631 383.128C844.746 383.447 830.948 383.712 828.334 383.501C818.746 382.726 743.785 384.674 740.759 382.587C740.648 381.333 740.552 380.076 740.473 378.819C740.959 376.052 740.597 355.22 740.636 350.7C740.032 337.847 740.614 320.061 740.66 306.956L740.675 303.135L740.534 282.483Z"/><path fill="#E6EBEF" transform="scale(0.549805 0.549805)" d="M865.531 300.473C866.224 304.683 866.12 310.978 866.016 315.362C865.627 331.824 866.181 348.366 865.687 364.8C865.594 367.919 863.854 372.466 861.989 374.946C858.536 379.536 853.341 382.497 847.631 383.128C844.746 383.447 830.948 383.712 828.334 383.501C818.746 382.726 743.785 384.674 740.759 382.587C740.648 381.333 740.552 380.076 740.473 378.819C740.959 376.052 740.597 355.22 740.636 350.7C741.443 353.76 741.227 358.114 741.221 361.394C757.228 361.751 774.216 361.433 790.323 361.516C806.55 361.601 825.068 362.012 841.15 361.243C841.887 344.197 841.095 324.73 840.61 307.623C844.731 307.702 863.002 306.757 864.872 308.55C864.946 309.746 864.864 309.893 865.201 311.014L865.34 306.911C865.333 304.735 865.436 302.643 865.531 300.473Z"/><path fill="#E6EBEF" transform="scale(0.549805 0.549805)" d="M740.534 282.483L814.597 282.667C823.655 282.676 832.704 282.665 841.786 282.662C849.154 282.659 855.117 283.566 860.499 289.245C863.494 292.413 865.339 295.999 865.531 300.473C865.436 302.643 865.333 304.735 865.34 306.911C833.911 307.098 802.481 307.083 771.053 306.867C767.372 306.87 742.67 307.322 741.334 306.447C741.297 305.11 741.389 304.332 740.675 303.135L740.534 282.483Z"/><path fill="#0682DC" transform="scale(0.549805 0.549805)" d="M714.349 707.764C717.742 703.343 721.884 703.436 727.038 704.082C732.531 708.07 746.412 723.611 751.252 729.046C767.647 747.457 781.186 745.805 803.966 745.436C811.252 745.434 823.494 745.992 830.351 745.145C830.972 745.069 831.59 744.968 832.204 744.843C835.542 742.252 835.971 741.717 837.444 737.768C842.284 742.117 865.139 765.107 865.573 769.293C865.679 769.962 865.765 770.633 865.833 771.306C866.23 775.14 866.512 797.428 864.665 799.748C858.472 803.21 835.104 802.012 826.666 802.028L768.4 802.168C760.444 794.491 752.168 783.191 745.114 774.374C735.012 761.857 724.822 749.412 714.546 737.037C713.523 726.233 714.77 717.784 714.349 707.764Z"/><path fill="#37B9F7" transform="scale(0.549805 0.549805)" d="M714.349 707.764C717.742 703.343 721.884 703.436 727.038 704.082C732.531 708.07 746.412 723.611 751.252 729.046C767.647 747.457 781.186 745.805 803.966 745.436C811.252 745.434 823.494 745.992 830.351 745.145C830.972 745.069 831.59 744.968 832.204 744.843C835.542 742.252 835.971 741.717 837.444 737.768C842.284 742.117 865.139 765.107 865.573 769.293C865.355 771.63 865.472 775.116 865.48 777.546C858.831 777.302 851.44 778.488 844.349 777.932C822.134 776.187 792.196 782.947 772.108 772.762C769.387 771.382 757.329 757.61 756.268 756.007C751.123 748.233 715.237 711.572 714.349 707.764Z"/><path fill="#0682DC" transform="scale(0.549805 0.549805)" d="M186.631 738.173C188.262 743.089 189.699 745.365 195.534 745.786C198.432 745.996 201.546 745.54 204.477 745.542C209.691 745.545 214.918 745.48 220.133 745.545C243.627 745.352 255.241 749.182 272.928 730.226C277.575 725.245 282.938 719.416 287.829 714.486C290.167 712.129 293.235 708.009 295.669 706.081C298.041 704.218 301.089 703.442 304.063 703.946C307.416 704.534 308.748 705.731 310.625 708.342C310.655 717.791 311.156 727.173 310.827 736.602C307.857 740.798 303.479 745.537 300.117 749.579L282.624 770.967C274.968 780.309 265.026 793.892 257.431 802.31C239.632 802.184 221.832 802.16 204.032 802.239C196.9 802.267 167.952 803.169 161.326 800.945C158.228 799.906 159.004 781.751 159.015 776.851L158.994 768.678C164.96 760.649 179.359 745.951 186.631 738.173Z"/><path fill="#37B9F7" transform="scale(0.549805 0.549805)" d="M186.631 738.173C188.262 743.089 189.699 745.365 195.534 745.786C198.432 745.996 201.546 745.54 204.477 745.542C209.691 745.545 214.918 745.48 220.133 745.545C243.627 745.352 255.241 749.182 272.928 730.226C277.575 725.245 282.938 719.416 287.829 714.486C290.167 712.129 293.235 708.009 295.669 706.081C298.041 704.218 301.089 703.442 304.063 703.946C307.416 704.534 308.748 705.731 310.625 708.342C292.004 727.576 275.323 750.114 257.285 769.785C250.915 776.731 236.348 779.199 228.013 778.449C221.724 777.882 161.157 778.873 159.521 777.766L159.015 776.851L158.994 768.678C164.96 760.649 179.359 745.951 186.631 738.173Z"/><path fill="#FAEA24" transform="scale(0.549805 0.549805)" d="M680.387 129.657C683.778 124.925 693.271 104.628 697.757 103.282L699.717 104.43C703.091 105.89 701.534 110.849 704.964 106.193C709.406 105.181 714.182 110.894 710.876 116.096C710.174 116.436 710.126 116.622 709.559 116.552C708.188 115.444 708.657 115.418 707.287 115.213C707.626 117.634 708.681 117.518 708.77 120.538C712.248 128.133 713.206 130.881 721.66 134.066C727.33 136.202 734.844 138.501 739.943 141.613C736.418 145.399 721.304 157.783 719.812 160.333C722.051 171.047 724.583 173.4 724.269 185.295C723.177 186.417 723.013 186.497 721.694 187.374C721.441 188.611 721.557 189.241 721.629 190.502L720.692 191.513L720.03 191.485L719.883 190.499C711.114 185.941 703.463 180.252 694.65 175.787C685.009 179.975 675.674 185.545 666.279 189.477C668.149 179.969 670.261 169.045 671.096 159.539C664.683 152.281 655.602 145.238 649.944 138.054C659.217 134.542 671.666 133.371 680.387 129.657Z"/><path fill="#37B9F7" transform="scale(0.549805 0.549805)" d="M719.883 190.499C721.248 188.294 719.433 165.943 719.812 160.333C722.051 171.047 724.583 173.4 724.269 185.295C723.177 186.417 723.013 186.497 721.694 187.374C721.441 188.611 721.557 189.241 721.629 190.502L720.692 191.513L720.03 191.485L719.883 190.499Z"/><path fill="#37B9F7" transform="scale(0.549805 0.549805)" d="M699.717 104.43C703.091 105.89 701.534 110.849 704.964 106.193C709.406 105.181 714.182 110.894 710.876 116.096C710.174 116.436 710.126 116.622 709.559 116.552C708.188 115.444 708.657 115.418 707.287 115.213C707.626 117.634 708.681 117.518 708.77 120.538C707.172 117.788 699.94 106.318 699.717 104.43Z"/><path fill="#37B9F7" transform="scale(0.549805 0.549805)" d="M725.92 130.869L728.3 130.763C729.883 131.855 729.282 131.116 729.829 133.302C728.516 132.782 727.466 132.364 726.186 131.734L725.92 130.869Z"/></svg>